<?xml version="1.0" encoding="UTF-8" standalone="no"?>
<svg
   xmlns:dc="http://purl.org/dc/elements/1.1/"
   xmlns:cc="http://creativecommons.org/ns#"
   xmlns:rdf="http://www.w3.org/1999/02/22-rdf-syntax-ns#"
   xmlns:svg="http://www.w3.org/2000/svg"
   xmlns="http://www.w3.org/2000/svg"
   xmlns:sodipodi="http://sodipodi.sourceforge.net/DTD/sodipodi-0.dtd"
   xmlns:inkscape="http://www.inkscape.org/namespaces/inkscape"
   version="1.1"
   id="svg2"
   xml:space="preserve"
   width="1263.2"
   height="193.98666"
   viewBox="0 0 1263.2 193.98666"
   sodipodi:docname="Buckle-Logo.eps"><metadata
     id="metadata8"><rdf:RDF><cc:Work
         rdf:about=""><dc:format>image/svg+xml</dc:format><dc:type
           rdf:resource="http://purl.org/dc/dcmitype/StillImage" /></cc:Work></rdf:RDF></metadata><defs
     id="defs6" /><sodipodi:namedview
     pagecolor="#ffffff"
     bordercolor="#666666"
     borderopacity="1"
     objecttolerance="10"
     gridtolerance="10"
     guidetolerance="10"
     inkscape:pageopacity="0"
     inkscape:pageshadow="2"
     inkscape:window-width="640"
     inkscape:window-height="480"
     id="namedview4" /><g
     id="g10"
     inkscape:groupmode="layer"
     inkscape:label="ink_ext_XXXXXX"
     transform="matrix(1.3333333,0,0,-1.3333333,0,193.98667)"><g
       id="g12"
       transform="scale(0.1)"><path
         d="m 451.387,1109.38 h 222.226 c 152.774,0 187.5,-45.15 187.5,-125.005 0,-76.395 -45.14,-125 -184.027,-125 H 454.863 V 1109.38 M 0,171.879 h 847.223 c 246.527,0 322.917,24.289 399.307,90.269 52.08,41.672 83.33,118.063 83.33,208.332 0,197.918 -135.42,277.782 -270.83,284.727 125,31.25 218.75,114.578 218.75,267.363 0,194.44 -145.84,298.6 -496.53,298.6 H 0 Z m 451.387,482.633 h 222.226 c 166.664,0 229.164,-41.668 229.164,-138.887 0,-97.227 -59.027,-138.895 -229.164,-138.895 H 451.387 Z m 3409.723,13.886 c 0,274.309 -243.05,343.752 -569.44,343.752 -482.65,0 -649.31,-128.478 -649.31,-427.08 0,-309.031 201.39,-430.558 607.64,-430.558 208.33,0 329.86,24.308 440.98,79.867 111.1,55.539 180.54,142.351 180.54,263.883 h -458.33 c 0,-76.383 -38.19,-149.301 -142.36,-149.301 -114.58,0 -142.35,107.633 -142.35,249.996 0,131.941 45.13,222.215 149.29,222.215 45.15,0 76.4,-17.352 97.23,-41.66 20.83,-27.782 34.73,-62.5 38.19,-107.637 h 447.92 z M 5680.56,171.879 V 1321.17 H 5211.81 V 171.879 Z m 1295.13,336.793 v 41.672 c 0,354.168 -246.52,451.386 -614.58,451.386 -423.61,0 -614.59,-125 -614.59,-434.023 0,-302.078 180.56,-423.617 628.48,-423.617 493.06,0 572.92,128.48 586.81,260.422 h -458.33 c -13.9,-52.094 -48.62,-93.75 -138.9,-93.75 -107.64,0 -159.72,62.5 -159.72,197.91 z m -767.36,152.785 c 0,104.168 55.56,173.613 156.25,173.613 107.65,0 156.25,-69.445 156.25,-173.613 z M 1993.06,151.039 c -315.98,0 -593.75,20.84 -593.75,350.691 v 479.168 h 468.75 V 553.82 c 0,-118.058 45.13,-159.73 128.47,-159.73 79.86,0 128.47,41.672 128.47,159.73 v 427.078 h 468.75 V 501.73 C 2590.28,175.34 2312.5,151.039 1993.06,151.039 Z m 2802.08,503.473 c -6.95,-6.942 -10.41,-17.364 -10.41,-27.782 0,-10.41 3.46,-20.832 6.94,-24.308 L 5208.33,175.34 H 4618.06 L 4385.42,477.422 V 175.34 h -465.28 v 1145.83 h 468.75 V 720.48 l 187.5,250 h 538.19 L 4795.14,654.512"
         style="fill:#040606;fill-opacity:1;fill-rule:nonzero;stroke:none"
         id="path14" /><path
         d="m 8472.23,776.035 h -711.81 v 375.005 h 711.81 c 104.16,0 187.5,-83.33 187.5,-187.505 0,-104.16 -83.34,-187.5 -187.5,-187.5 z m 0,-472.215 h -711.81 v 375 h 711.81 c 104.16,0 187.5,-83.34 187.5,-187.5 0,-104.172 -83.34,-187.5 -187.5,-187.5 z m 986.1,732.64 c -31.25,218.75 -215.27,381.94 -434.02,402.77 -361.12,20.84 -722.23,20.84 -1083.33,0 -218.75,-20.83 -402.79,-180.56 -434.04,-402.77 -20.83,-204.866 -20.83,-413.198 0,-618.062 31.25,-218.75 215.29,-381.9371 434.04,-402.7691 361.1,-20.83984 722.21,-20.83984 1083.33,0 218.75,20.832 402.77,180.5391 434.02,402.7691 20.84,204.864 20.84,413.196 0,618.062"
         style="fill:#821b33;fill-opacity:1;fill-rule:nonzero;stroke:none"
         id="path16" /></g></g></svg>
