<?xml version="1.0" encoding="UTF-8" standalone="no"?>
<!-- Created by potrace 1.10, written by Peter Selinger 2001-2011
     Created with Inkscape (http://www.inkscape.org/) -->

<svg
   xmlns:dc="http://purl.org/dc/elements/1.1/"
   xmlns:cc="http://creativecommons.org/ns#"
   xmlns:rdf="http://www.w3.org/1999/02/22-rdf-syntax-ns#"
   xmlns:svg="http://www.w3.org/2000/svg"
   xmlns="http://www.w3.org/2000/svg"
   version="1.0"
   width="412.00226"
   height="80.515991"
   viewBox="0 0 329.60181 64.412793"
   id="svg2">
  <defs
     id="defs42" />
  <metadata
     id="metadata4">
<rdf:RDF>
  <cc:Work
     rdf:about="">
    <dc:format>image/svg+xml</dc:format>
    <dc:type
       rdf:resource="http://purl.org/dc/dcmitype/StillImage" />
    <dc:title></dc:title>
  </cc:Work>
</rdf:RDF>
</metadata>
  <g
     transform="matrix(0.02218356,0,0,-0.02218356,-1.3642459,65.448461)"
     id="g6"
     style="fill:#000000;stroke:none">
    <path
       d="m 2990,2759 c -165,-16 -328,-63 -430,-125 -84,-50 -175,-150 -215,-236 -65,-142 -66,-156 -63,-913 4,-675 4,-681 27,-755 41,-136 77,-198 165,-285 60,-60 100,-90 156,-116 113,-55 232,-85 376,-96 l 84,-6 0,201 0,200 -37,7 c -63,11 -128,44 -166,83 -70,72 -67,39 -67,773 l -1,661 24,52 c 34,73 112,129 200,144 l 42,8 3,207 c 1,114 -1,206 -5,206 -5,-1 -46,-5 -93,-10 z"
       id="path8" />
    <path
       d="m 3250,2566 0,-204 51,-11 c 71,-15 115,-38 155,-79 66,-68 65,-55 62,-798 l -3,-669 -28,-48 C 3452,697 3387,654 3308,638 l -58,-12 0,-199 0,-200 93,6 c 233,15 415,85 537,207 77,76 128,172 161,300 22,83 23,101 26,715 1,390 -1,664 -8,720 -40,354 -254,543 -660,585 -56,5 -112,10 -125,10 l -24,0 0,-204 z"
       id="path10" />
    <path
       d="m 9030,2764 c -424,-40 -630,-165 -727,-441 l -28,-78 0,-715 c 0,-799 -2,-772 72,-930 42,-88 154,-207 243,-257 104,-59 316,-113 442,-113 l 48,0 0,199 0,199 -37,7 c -56,10 -134,48 -167,81 -16,16 -37,48 -48,72 -18,40 -19,74 -18,708 0,529 3,672 14,697 31,76 102,129 201,152 l 50,11 3,207 c 1,114 -1,206 -5,205 -5,0 -24,-3 -43,-4 z"
       id="path12" />
    <path
       d="m 9227,2763 c -4,-3 -7,-95 -7,-203 l 0,-197 68,-17 c 89,-22 140,-58 175,-126 l 28,-55 -1,-669 c 0,-651 -1,-670 -21,-715 -11,-25 -30,-57 -42,-70 -28,-30 -110,-69 -164,-77 l -42,-6 0,-201 0,-200 92,6 c 316,19 539,141 642,350 19,40 45,108 57,152 22,79 23,87 23,775 0,645 -1,700 -19,765 -70,266 -243,417 -537,469 -100,17 -243,29 -252,19 z"
       id="path14" />
    <path
       d="m 13553,2759 c -50,-5 -135,-20 -190,-34 -273,-69 -433,-219 -489,-460 -18,-74 -19,-131 -19,-760 0,-673 0,-681 23,-769 58,-227 196,-374 423,-450 82,-27 238,-56 307,-56 l 42,0 0,199 0,200 -55,16 c -34,9 -71,30 -95,52 -72,64 -71,51 -68,819 l 3,679 28,47 c 30,52 93,95 151,105 l 36,6 0,208 c 0,115 -1,208 -2,208 -2,-1 -44,-6 -95,-10 z"
       id="path16" />
    <path
       d="m 13780,2566 0,-204 52,-11 c 71,-16 123,-47 155,-95 28,-43 30,-61 36,-271 l 2,-80 294,-3 294,-2 -6,167 c -4,138 -9,183 -29,250 -63,209 -217,348 -455,409 -81,20 -251,44 -319,44 l -24,0 0,-204 z"
       id="path18" />
    <path
       d="m 350,1495 0,-1215 23,-5 c 12,-3 139,-4 282,-3 l 260,3 0,1215 0,1215 -282,3 -283,2 0,-1215 z"
       id="path20" />
    <path
       d="m 1527,2703 c -4,-3 -7,-224 -7,-489 l 0,-484 -227,-2 -228,-3 -3,-182 -2,-183 230,0 230,0 2,-542 3,-543 283,-3 282,-3 0,1221 0,1220 -278,0 c -153,0 -282,-3 -285,-7 z"
       id="path22" />
    <path
       d="m 4200,2500 0,-210 868,2 867,3 2,208 2,207 -869,0 -870,0 0,-210 z"
       id="path24" />
    <path
       d="m 6392,2503 3,-208 868,-3 867,-2 0,210 0,210 -870,0 -870,0 2,-207 z"
       id="path26" />
    <path
       d="m 10222,1493 3,-1218 275,0 275,0 3,1218 2,1217 -280,0 -280,0 2,-1217 z"
       id="path28" />
    <path
       d="m 10920,2500 0,-210 169,0 c 210,0 278,-17 346,-85 53,-53 70,-102 69,-210 -1,-121 -42,-193 -133,-239 -71,-36 -143,-47 -303,-47 l -148,1 0,-185 0,-185 218,0 c 326,0 474,29 590,115 91,67 143,159 179,319 23,103 23,387 0,481 -78,318 -325,455 -819,455 l -168,0 0,-210 z"
       id="path30" />
    <path
       d="m 12102,1493 3,-1218 273,-3 272,-3 0,1221 0,1220 -275,0 -275,0 2,-1217 z"
       id="path32" />
    <path
       d="m 4782,1218 3,-943 280,0 280,0 3,943 2,942 -285,0 -285,0 2,-942 z"
       id="path34" />
    <path
       d="m 6970,1221 c 0,-803 2,-940 14,-944 8,-3 136,-6 285,-7 l 271,-1 0,946 0,945 -285,0 -285,0 0,-939 z"
       id="path36" />
    <path
       d="m 14026,1014 c -3,-9 -6,-61 -6,-117 0,-79 -5,-112 -19,-144 -26,-56 -88,-99 -162,-114 l -59,-12 0,-198 0,-199 43,0 c 78,0 221,22 307,47 124,36 214,87 296,168 118,116 170,249 181,468 l 6,117 -290,0 c -256,0 -292,-2 -297,-16 z"
       id="path38" />
  </g>
  <g
     transform="matrix(0.22327392,0,0,0.2204066,-1.3642459,-1.1022291)"
     id="text3809"
     style="font-size:30.25185776px;font-style:normal;font-variant:normal;font-weight:900;font-stretch:normal;text-align:start;line-height:125%;letter-spacing:0px;word-spacing:0px;writing-mode:lr-tb;text-anchor:start;fill:#000000;fill-opacity:1;stroke:none;font-family:Arial Black;-inkscape-font-specification:'Arial Black, Heavy'">
    <path
       d="m 1467.9997,34.699436 c 0,2.018769 -0.5047,3.89966 -1.514,5.64268 -1.0094,1.743031 -2.3856,3.116771 -4.1287,4.121225 -1.743,1.004456 -3.6239,1.506684 -5.6426,1.506684 -2.009,0 -3.8849,-0.502228 -5.6279,-1.506684 -1.7431,-1.004454 -3.1193,-2.378194 -4.1287,-4.121225 -1.0093,-1.74302 -1.514,-3.623911 -1.514,-5.64268 0,-2.0089 0.5047,-3.88733 1.514,-5.635295 1.0094,-1.747933 2.3856,-3.124135 4.1287,-4.128611 1.743,-1.004434 3.6189,-1.506662 5.6279,-1.506684 2.0187,2.2e-5 3.8996,0.50225 5.6426,1.506684 1.7431,1.004476 3.1193,2.380678 4.1287,4.128611 1.0093,1.747965 1.514,3.626395 1.514,5.635295 z m -2.1861,0 c -10e-5,-2.511128 -0.8888,-4.655442 -2.6663,-6.432951 -1.7775,-1.777475 -3.9218,-2.666221 -6.4329,-2.666241 -2.5112,2e-5 -4.6555,0.888766 -6.433,2.666241 -1.7775,1.777509 -2.6662,3.921823 -2.6662,6.432951 0,2.511149 0.8887,4.655463 2.6662,6.432951 1.7775,1.777496 3.9218,2.666242 6.433,2.66624 2.5111,2e-6 4.6554,-0.888744 6.4329,-2.66624 1.7775,-1.777488 2.6662,-3.921802 2.6663,-6.432951 z m -14.2101,-6.026738 5.3915,0 c 1.5264,1.7e-5 2.6318,0.307755 3.3162,0.923214 0.6844,0.615491 1.0266,1.440227 1.0266,2.474212 0,0.807516 -0.261,1.506696 -0.7829,2.097541 -0.5219,0.590867 -1.3442,1.019238 -2.4668,1.285113 0.4628,0.177267 0.8026,0.364371 1.0192,0.561314 0.3053,0.275742 0.6253,0.684417 0.9602,1.226027 0.02,0.0394 0.6696,1.201416 1.9498,3.486054 l -3.5451,0 c -1.1522,-2.294486 -1.9253,-3.665764 -2.3191,-4.113839 -0.394,-0.448057 -0.7879,-0.67209 -1.1818,-0.672099 -0.089,9e-6 -0.2117,0.01478 -0.3692,0.04431 l 0,4.741624 -2.9986,0 z m 2.9986,5.11091 1.2998,0 c 0.8666,1.2e-5 1.4772,-0.140317 1.8317,-0.420985 0.3545,-0.280645 0.5318,-0.642544 0.5318,-1.085699 0,-0.443129 -0.1699,-0.805028 -0.5096,-1.085699 -0.3398,-0.280643 -0.9183,-0.420971 -1.7357,-0.420986 l -1.418,0 z"
       id="path3814"
       style="line-height:125%;font-family:Arial Black;-inkscape-font-specification:'Arial Black, Heavy'" />
  </g>
</svg>
