<?xml version="1.0" encoding="UTF-8" standalone="no"?>
<svg
   xmlns:dc="http://purl.org/dc/elements/1.1/"
   xmlns:cc="http://creativecommons.org/ns#"
   xmlns:rdf="http://www.w3.org/1999/02/22-rdf-syntax-ns#"
   xmlns:svg="http://www.w3.org/2000/svg"
   xmlns="http://www.w3.org/2000/svg"
   xmlns:xlink="http://www.w3.org/1999/xlink"
   width="103.47917"
   height="40.494785"
   viewBox="0 0 27.378863 10.714246"
   version="1.1"
   id="svg8">
  <path
     id="path2195"
     style="clip-rule:nonzero;fill:#0f7fca;fill-opacity:1;fill-rule:nonzero;stroke:none;stroke-width:0.352778"
     d="m 26.840049,8.674755 c -0.01792,-0.00688 -0.04272,-0.00963 -0.07579,-0.00963 h -0.03168 v 0.144691 h 0.05099 c 0.0303,0 0.05374,-0.00688 0.07028,-0.019297 0.01655,-0.012418 0.02618,-0.031715 0.02618,-0.059256 0,-0.026176 -0.01379,-0.045477 -0.03997,-0.056501 m -0.23702,0.3996301 V 8.5769227 c 0.0303,0 0.07579,0 0.137802,0 0.06201,0.00141 0.09509,0.00141 0.101977,0.00141 0.03996,0.00282 0.07166,0.011007 0.09784,0.026176 0.04548,0.023424 0.06752,0.063391 0.06752,0.1185122 0,0.041342 -0.01242,0.07166 -0.03583,0.089574 -0.02342,0.019297 -0.05099,0.030304 -0.08544,0.033055 0.03168,0.00688 0.05374,0.016545 0.07028,0.028928 0.02893,0.023425 0.04272,0.060632 0.04272,0.1116189 v 0.045477 c 0,0.00413 0.0014,0.00826 0.0014,0.013794 0.0014,0.0055 0.0028,0.00967 0.0041,0.015169 l 0.0041,0.013794 h -0.124023 c -0.0041,-0.016545 -0.0069,-0.038583 -0.0083,-0.068901 -0.0014,-0.030304 -0.0028,-0.049608 -0.0083,-0.060632 -0.0069,-0.017921 -0.01792,-0.030304 -0.03583,-0.037207 -0.0096,-0.00413 -0.0248,-0.00688 -0.0441,-0.00826 l -0.02893,-0.00141 h -0.02755 V 9.0744134 Z M 26.53551,8.564519 c -0.07166,0.073036 -0.107484,0.1598542 -0.107484,0.2604488 0,0.1033533 0.0372,0.1915477 0.108864,0.2645833 0.07304,0.073036 0.15985,0.1088672 0.261828,0.1088672 0.101974,0 0.188789,-0.037208 0.260449,-0.110243 0.07304,-0.073036 0.108863,-0.1612301 0.108863,-0.2632075 0,-0.1005946 -0.03583,-0.1860339 -0.107487,-0.2604488 -0.07304,-0.074415 -0.159851,-0.1116189 -0.261825,-0.1116189 -0.103353,0 -0.190172,0.037204 -0.263208,0.1116189 m 0.577399,0.581533 c -0.08681,0.08406 -0.191548,0.1267777 -0.314191,0.1267777 -0.125402,0 -0.23151,-0.042718 -0.318329,-0.1295329 -0.08681,-0.085439 -0.129533,-0.1929271 -0.129533,-0.318329 0,-0.1309123 0.04685,-0.239776 0.139181,-0.3265946 0.08819,-0.081305 0.190169,-0.1212674 0.308681,-0.1212674 0.124023,0 0.228752,0.042721 0.316946,0.1309158 0.08682,0.086815 0.130916,0.1929236 0.130916,0.3169462 0,0.1267812 -0.0441,0.2342691 -0.133671,0.3210842" />
  <path
     id="path2129"
     style="clip-rule:nonzero;fill:#0f7fca;fill-opacity:1;fill-rule:nonzero;stroke:none;stroke-width:0.352778"
     d="m 15.249373,3.6655858 c -0.680751,-0.2673385 -1.16031,-0.9287968 -1.16031,-1.7018775 0,-1.01010158 0.815798,-1.82590017 1.827279,-1.82590017 l 3.281109,-0.002822 c 0.402389,0 0.730359,0.3265946 0.730359,0.72898351 0,0.41340966 -0.32797,0.72897996 -0.730359,0.72897996 h -3.281109 c -0.202572,0 -0.365181,0.1639888 -0.365181,0.3651814 0,0.1474506 0.08819,0.2756077 0.214975,0.3321086 l 2.886989,1.31058 c 0.745518,0.2852525 1.274685,1.0059669 1.274685,1.8507039 0,1.0927856 -0.892969,1.9802404 -1.988506,1.9802404 l -3.121258,0.00141 c -0.402389,0 -0.728983,-0.3265946 -0.728983,-0.7289835 0,-0.4023854 0.326594,-0.72898 0.728983,-0.72898 l 3.121258,-0.00282 c 0.294897,0 0.527787,-0.2328898 0.527787,-0.5277908 0,-0.2301311 -0.146071,-0.4230582 -0.351398,-0.4974696 z m 0,0 m 6.248023,0 C 20.818023,3.3982473 20.337089,2.736789 20.337089,1.9637083 c 0,-1.01010158 0.815798,-1.82590017 1.827279,-1.82590017 l 3.281109,-0.002822 c 0.402385,0 0.730359,0.3265946 0.730359,0.72898351 0,0.41340966 -0.327974,0.72897996 -0.730359,0.72897996 h -3.281109 c -0.202572,0 -0.365181,0.1639888 -0.365181,0.3651814 0,0.1474506 0.08819,0.2756077 0.214975,0.3321086 l 2.886989,1.31058 c 0.745518,0.2852525 1.274685,1.0059669 1.274685,1.8507039 0,1.0927856 -0.892969,1.9802404 -1.98851,1.9802404 l -3.121254,0.00141 c -0.402389,0 -0.728983,-0.3265946 -0.728983,-0.7289835 0,-0.4023854 0.326594,-0.72898 0.728983,-0.72898 l 3.121254,-0.00282 c 0.294901,0 0.529167,-0.2328898 0.529167,-0.5277908 0,-0.2301311 -0.147451,-0.4230582 -0.351398,-0.4974696 z m 0,0 M 4.4042122,2.2158914 c 0.066146,-0.066146 0.1074879,-0.1570954 0.1074879,-0.2576935 0,-0.2011927 -0.1639887,-0.3651815 -0.3651814,-0.3651815 H 0.86265505 c -0.40376827,0 -0.73036287,-0.3265946 -0.73036287,-0.72897995 0,-0.40238891 0.31832902,-0.72760415 0.72209376,-0.72760415 L 4.1465187,0.1350213 c 1.0114809,0 1.8245207,0.81855378 1.8245207,1.8286553 0,0.540191 -0.2356414,1.0266398 -0.609092,1.3615035 L 3.6159727,5.0711548 C 3.5084883,5.1689942 3.456122,5.2875063 3.456122,5.4446018 c 0,0.294901 0.2328862,0.5291666 0.5277873,0.5291666 l 1.2581502,-0.00141 c 0.4023853,0 0.7289799,0.3293498 0.7289799,0.7303594 0,0.4037647 -0.3265946,0.7303593 -0.7289799,0.7303593 h -1.259526 c -1.0955408,0 -1.9871337,-0.9053724 -1.9871337,-1.9995338 0,-0.5718845 0.276987,-1.0831371 0.5911779,-1.3987074 z m 0,0 M 1.591635,6.7055389 c 0,0.4023889 -0.3265946,0.7289835 -0.72897995,0.7289835 -0.40376827,0 -0.73036287,-0.3265946 -0.73036287,-0.7289835 V 3.0537386 c 0,-0.4023889 0.3265946,-0.7289835 0.73036287,-0.7289835 0.40238535,0 0.72897995,0.3265946 0.72897995,0.7289835 z m 0,0 M 7.1120568,1.5930164 C 7.7790255,0.71934112 8.8456279,0.13229774 10.030743,0.13229774 c 2.016068,0 3.649045,1.63710756 3.649045,3.65042086 0,2.0133169 -1.631598,3.6490451 -3.649045,3.6490451 -2.0160725,0 -3.6490455,-1.6357282 -3.6490455,-3.6490451 0,-0.3527777 0.034466,-0.5457013 0.1157534,-0.9136379 0.079925,-0.3417535 0.4065235,-0.5470808 0.7138246,-0.5470808 0.4023854,0 0.8185538,0.3610469 0.6986658,0.9108828 -0.044097,0.1736337 -0.068901,0.3610469 -0.068901,0.5498359 0,1.2195669 0.9770286,2.1897058 2.1897027,2.1897058 1.212673,0 2.189702,-0.9701389 2.189702,-2.1897058 0,-1.2181839 -0.977029,-2.1897022 -2.189702,-2.1897022 z m 0,0" />
  <path
     id="path2191"
     style="clip-rule:nonzero;fill:#0f7fca;fill-opacity:1;fill-rule:nonzero;stroke:none;stroke-width:0.352778"
     d="m 13.260864,8.8428748 c 0.197058,-0.2604488 0.514008,-0.4354583 0.866786,-0.4354583 0.599447,0 1.084516,0.4878246 1.084516,1.0872716 0,0.6008269 -0.485069,1.0872719 -1.084516,1.0872719 -0.599448,0 -1.084517,-0.487825 -1.084517,-1.0872719 0,-0.1047291 0.0096,-0.1626093 0.03447,-0.271473 0.02343,-0.101974 0.121268,-0.1626094 0.212217,-0.1626094 0.119888,0 0.242535,0.1074878 0.208083,0.2714731 -0.01379,0.050987 -0.02067,0.1074878 -0.02067,0.1626093 0,0.3638021 0.289387,0.6531889 0.650434,0.6531889 0.361047,0 0.650434,-0.2893868 0.650434,-0.6531889 0,-0.3624227 -0.289387,-0.6518133 -0.650434,-0.6518133 z m 0,0 M 24.796422,9.4602359 C 24.59385,9.3803105 24.45191,9.1832524 24.45191,8.9531178 c 0,-0.3017872 0.242534,-0.544322 0.544325,-0.544322 h 0.974274 c 0.118512,0 0.216351,0.09646 0.216351,0.2163516 0,0.1226432 -0.09784,0.2177274 -0.216351,0.2177274 h -0.97565 c -0.06064,0 -0.108867,0.048232 -0.108867,0.1088672 0,0.044097 0.02618,0.081305 0.06339,0.099219 l 0.858516,0.3899853 c 0.221866,0.08406 0.378961,0.2990321 0.378961,0.5512152 0,0.3252145 -0.264583,0.5897985 -0.591178,0.5897985 H 24.66826 c -0.119888,0 -0.217727,-0.09784 -0.217727,-0.217731 0,-0.119888 0.09784,-0.216352 0.217727,-0.216352 l 0.927421,-0.0014 c 0.08819,0 0.157096,-0.0689 0.157096,-0.1570985 0,-0.068901 -0.0441,-0.1253983 -0.104729,-0.1474469 z m 0,0 m -1.98162,0 C 22.61223,9.3803105 22.470293,9.1832524 22.470293,8.9531178 c 0,-0.3017872 0.243911,-0.5457013 0.544322,-0.5457013 h 0.974274 c 0.119891,0 0.216351,0.097839 0.216351,0.2177309 0,0.1226432 -0.09646,0.2177274 -0.216351,0.2177274 H 23.01324 c -0.06064,0 -0.108868,0.048232 -0.108868,0.1074878 0,0.044097 0.02618,0.082684 0.06339,0.1005981 l 0.85852,0.3899853 c 0.221862,0.08406 0.378957,0.2990321 0.378957,0.5512152 0,0.3252148 -0.264583,0.5897988 -0.591178,0.5897988 h -0.927417 c -0.119892,0 -0.216352,-0.09784 -0.216352,-0.217731 0,-0.119888 0.09646,-0.216352 0.216352,-0.216352 l 0.927417,-0.0014 c 0.08819,0 0.158475,-0.0689 0.158475,-0.1570988 0,-0.068901 -0.0441,-0.1253983 -0.104729,-0.1474469 z m 0,0 m -14.4776679,0 C 8.134562,9.3803105 7.991246,9.1832524 7.991246,8.9531178 c 0,-0.3017872 0.2439106,-0.5457013 0.5443255,-0.5457013 h 0.9742699 c 0.1198916,0 0.217731,0.097839 0.217731,0.2177309 0,0.1226432 -0.097839,0.2177274 -0.217731,0.2177274 H 8.5341922 c -0.059256,0 -0.1074879,0.048232 -0.1074879,0.1074878 0,0.044097 0.026176,0.082684 0.063391,0.1005981 L 9.3486114,9.440946 c 0.2218655,0.08406 0.378961,0.2990321 0.378961,0.5512152 0,0.3252148 -0.2659592,0.5897988 -0.591178,0.5897988 h -0.927421 c -0.119888,0 -0.2177274,-0.09784 -0.2177274,-0.217731 0,-0.119888 0.097839,-0.216352 0.2177274,-0.216352 l 0.927421,-0.0014 c 0.088195,0 0.1570955,-0.0689 0.1570955,-0.1570988 0,-0.068901 -0.044097,-0.1253983 -0.1047291,-0.1474469 z m 0,0 m -1.9816198,0 C 6.1529422,9.3803105 6.0096263,9.1832524 6.0096263,8.9531178 c 0,-0.3017872 0.243914,-0.5457013 0.5443255,-0.5457013 H 7.529601 c 0.1185122,0 0.2163516,0.097839 0.2163516,0.2177309 0,0.1226432 -0.097839,0.2177274 -0.2163516,0.2177274 H 6.5539518 c -0.060636,0 -0.1088672,0.048232 -0.1088672,0.1074878 0,0.044097 0.026176,0.082684 0.063391,0.1005981 l 0.85852,0.3899853 c 0.2218619,0.08406 0.3789574,0.2990321 0.3789574,0.5512152 0,0.3252148 -0.2659592,0.5897988 -0.5911779,0.5897988 H 6.2273572 c -0.1198915,0 -0.2177309,-0.09784 -0.2177309,-0.217731 0,-0.119888 0.097839,-0.216352 0.2177309,-0.216352 l 0.9274175,-0.0014 c 0.088194,0 0.157099,-0.0689 0.157099,-0.1570988 0,-0.068901 -0.042721,-0.1253983 -0.1047327,-0.1474469 z m 0,0 M 16.721116,9.0275328 c 0.0193,-0.019297 0.03168,-0.046852 0.03168,-0.07717 0,-0.059256 -0.04823,-0.1074878 -0.107484,-0.1074878 h -0.977029 c -0.119892,0 -0.217731,-0.097839 -0.217731,-0.2177274 0,-0.1198915 0.09784,-0.2177309 0.217731,-0.2177309 h 0.975649 c 0.301791,0 0.542946,0.2439141 0.542946,0.5443255 0,0.16123 -0.07028,0.3059253 -0.181899,0.4065199 l -0.518142,0.5195217 c -0.03172,0.028928 -0.04685,0.064766 -0.04685,0.1116189 0,0.088195 0.0689,0.1570993 0.155716,0.1570993 h 0.374827 c 0.118512,0 0.216351,0.09784 0.216351,0.217727 0,0.119891 -0.09784,0.216355 -0.216351,0.216355 l -0.374827,0.0014 c -0.325215,0 -0.591177,-0.270094 -0.591177,-0.5953122 0,-0.170875 0.08268,-0.3238394 0.176388,-0.4161684 z m 0,0 m -0.836467,1.3366962 c 0,0.121267 -0.09646,0.217731 -0.216352,0.217731 -0.119891,0 -0.217731,-0.09646 -0.217731,-0.217731 V 9.2769572 c 0,-0.119888 0.09784,-0.2177273 0.217731,-0.2177273 0.119888,0 0.216352,0.097839 0.216352,0.2177273 z m 0,0 M 3.4450977,9.0275328 c 0.020673,-0.019297 0.031679,-0.046852 0.031679,-0.07717 0,-0.059256 -0.048232,-0.1074878 -0.1074878,-0.1074878 H 2.3922607 c -0.119888,0 -0.2163516,-0.097839 -0.2163516,-0.2177274 0,-0.1198915 0.096464,-0.2177309 0.2163516,-0.2177309 h 0.9756527 c 0.3017908,0 0.5429462,0.2439141 0.5429462,0.5443255 0,0.16123 -0.068901,0.3059253 -0.1805234,0.4065199 L 3.210818,9.8777836 c -0.03168,0.028928 -0.046856,0.064766 -0.046856,0.1116189 0,0.088195 0.068905,0.1570995 0.157099,0.1570995 h 0.3734612 c 0.1198879,0 0.2163515,0.09784 0.2163515,0.217727 0,0.119891 -0.096464,0.216355 -0.2163515,0.216355 l -0.3748264,0.0014 c -0.3252188,0 -0.5898021,-0.270094 -0.5898021,-0.5953124 0,-0.170875 0.081305,-0.3238394 0.175013,-0.4161684 z m 0,0 m -0.835092,1.3366962 c 0,0.121267 -0.097839,0.217731 -0.2177309,0.217731 -0.119888,0 -0.2163516,-0.09646 -0.2163516,-0.217731 V 9.2769572 c 0,-0.119888 0.096464,-0.2177273 0.2163516,-0.2177273 0.1198915,0 0.2177309,0.097839 0.2177309,0.2177273 z m 0,0 M 11.669229,9.4946881 h 0.96325 c 0.119888,-0.00141 0.217727,-0.097839 0.217727,-0.2177309 0,-0.1185086 -0.09784,-0.2163515 -0.217727,-0.2163515 h -1.18098 c -0.225997,0 -0.216352,0.2521832 -0.216352,0.2177309 v 1.0831374 c 0,0.119891 0.09646,0.220486 0.216352,0.220486 0.119888,0 0.21773,-0.09784 0.21773,-0.217731 z m 0,0 m 7.525466,0.6531889 h 0.964625 c 0.119892,0 0.216355,0.09646 0.216355,0.216352 0,0.119891 -0.09646,0.217731 -0.216355,0.217731 h -1.180976 c -0.119892,0 -0.216352,-0.09784 -0.216352,-0.217731 V 8.6251474 c 0,-0.1198915 0.09646,-0.2177309 0.216352,-0.2177309 0.118512,0 0.216351,0.097839 0.216351,0.2177309 z m 0,0 M 12.632482,8.8428783 c 0.119888,0 0.217727,-0.097839 0.217727,-0.2177274 0,-0.119895 -0.09784,-0.2177309 -0.217727,-0.2177309 h -1.18098 c -0.118516,0 -0.216351,0.097839 -0.216351,0.2177309 0,0.119888 0.09784,0.2177274 0.216351,0.2177274 z m 0,0 m 9.378925,0 c 0.119892,0 0.217731,-0.097839 0.217731,-0.2177274 0,-0.119895 -0.09784,-0.2177309 -0.217731,-0.2177309 h -1.180976 c -0.119895,0 -0.216352,0.097839 -0.216352,0.2177309 0,0.119888 0.09646,0.2177274 0.216352,0.2177274 z m 0,0 m -0.961873,1.3036237 h 0.964628 c 0.118509,0 0.216352,0.09784 0.216352,0.217727 0,0.119891 -0.09784,0.216355 -0.216352,0.217731 h -1.18098 c -0.119888,-0.0014 -0.216351,-0.09784 -0.216351,-0.217731 V 9.2783366 c 0,-0.119888 0.09646,-0.2177309 0.216351,-0.2191067 h 1.18098 c 0.118509,0.00141 0.216352,0.099219 0.216352,0.2191067 0,0.1185122 -0.09784,0.2163515 -0.216352,0.2163515 h -0.964628 z m 0,0 M 5.55074,8.8428783 c 0.119888,0 0.2177309,-0.097839 0.2177309,-0.2177274 C 5.7684709,8.5052559 5.670628,8.40742 5.55074,8.40742 H 4.36976 c -0.1185122,0 -0.2163516,0.097839 -0.2163516,0.2177309 0,0.119888 0.097839,0.2177274 0.2163516,0.2177274 z m 0,0 M 4.5902461,10.146502 h 0.9632491 c 0.119888,0 0.2163515,0.09784 0.2163515,0.217727 0,0.119891 -0.096464,0.216355 -0.2163515,0.217731 h -1.18098 C 4.2526272,10.580549 4.1561636,10.48412 4.1561636,10.364229 V 9.2783366 c 0,-0.119888 0.096464,-0.2177309 0.2163516,-0.2191067 h 1.18098 c 0.119888,0.00141 0.2163515,0.099219 0.2163515,0.2191067 0,0.1185122 -0.096464,0.2163515 -0.2163515,0.2163515 H 4.5902461 Z m 0,0 m -4.01284716,0 h 0.276987 C 1.2071637,10.146502 1.50482,9.8543557 1.50482,9.4946881 1.50482,9.1350206 1.2071637,8.8428748 0.85438594,8.8428748 H 0.36104739 c -0.11988799,0 -0.21773091,-0.097839 -0.21773091,-0.2177274 0,-0.1198915 0.0978429,-0.2177309 0.21773091,-0.2177309 l 0.49333855,0.00141 c 0.59806766,0 1.08313716,0.4781761 1.08313716,1.0886475 0,0.599447 -0.4850695,1.084517 -1.08313716,1.084517 H 0.36104739 c -0.11988799,0 -0.21773091,-0.09646 -0.21773091,-0.214973 V 9.2769879 c 0,-0.119888 0.0978429,-0.2177274 0.21773091,-0.2177274 0.119888,0 0.21635155,0.097839 0.21635155,0.2177274 z m 0,0" />
</svg>
